<svg xmlns="http://www.w3.org/2000/svg" viewBox="0 0 800 520" role="img" aria-labelledby="title desc"><title id="title">Xech Cyber brand board</title><desc id="desc">Varian logo, palet warna, clear space, dan contoh ukuran kecil</desc><rect width="800" height="520" fill="#111111"/><rect x="25" y="25" width="750" height="150" rx="12" fill="#0A0A0A"/><g transform="translate(55 50) scale(.95)"><path d="M50 5 88 19v28c0 23-15 40-38 48C27 87 12 70 12 47V19L50 5Z" fill="none" stroke="#F02D4F" stroke-width="7" stroke-linejoin="round"/><path d="M31 29 69 70M69 29 31 70" fill="none" stroke="#FF365C" stroke-width="9" stroke-linecap="square"/><circle cx="25" cy="23" r="4" fill="#F5F5F5"/><circle cx="75" cy="23" r="4" fill="#F5F5F5"/><circle cx="50" cy="82" r="4" fill="#F5F5F5"/><text x="112" y="61" font-family="JetBrains Mono,monospace" font-size="34" font-weight="700" letter-spacing="1"><tspan fill="#F02D4F">Xech</tspan><tspan fill="#F5F5F5"> Cyber</tspan></text><text x="114" y="79" fill="#8F8F96" font-family="JetBrains Mono,monospace" font-size="10" letter-spacing="4">SECURITY</text></g><rect x="25" y="195" width="750" height="130" rx="12" fill="#F5F5F5"/><g transform="translate(55 210) scale(.9)"><path d="M50 5 88 19v28c0 23-15 40-38 48C27 87 12 70 12 47V19L50 5Z" fill="none" stroke="#F02D4F" stroke-width="7" stroke-linejoin="round"/><path d="M31 29 69 70M69 29 31 70" fill="none" stroke="#FF365C" stroke-width="9" stroke-linecap="square"/><circle cx="25" cy="23" r="4" fill="#F5F5F5"/><circle cx="75" cy="23" r="4" fill="#F5F5F5"/><circle cx="50" cy="82" r="4" fill="#F5F5F5"/><text x="112" y="61" font-family="JetBrains Mono,monospace" font-size="34" font-weight="700" letter-spacing="1"><tspan fill="#F02D4F">Xech</tspan><tspan fill="#0A0A0A"> Cyber</tspan></text><text x="114" y="79" fill="#44444A" font-family="JetBrains Mono,monospace" font-size="10" letter-spacing="4">SECURITY</text></g><g transform="translate(55 355)"><path d="M50 5 88 19v28c0 23-15 40-38 48C27 87 12 70 12 47V19L50 5Z" fill="none" stroke="#F02D4F" stroke-width="7" stroke-linejoin="round"/><path d="M31 29 69 70M69 29 31 70" fill="none" stroke="#FF365C" stroke-width="9" stroke-linecap="square"/><circle cx="25" cy="23" r="4" fill="#F5F5F5"/><circle cx="75" cy="23" r="4" fill="#F5F5F5"/><circle cx="50" cy="82" r="4" fill="#F5F5F5"/></g><text x="180" y="380" fill="#F5F5F5" font-family="monospace" font-size="14">PALET WARNA</text><rect x="180" y="395" width="65" height="45" fill="#F02D4F"/><rect x="255" y="395" width="65" height="45" fill="#FF365C"/><rect x="330" y="395" width="65" height="45" fill="#F5F5F5"/><rect x="405" y="395" width="65" height="45" fill="#0A0A0A" stroke="#555"/><rect x="520" y="350" width="140" height="140" fill="none" stroke="#555" stroke-dasharray="5"/><g transform="translate(540 370)"><path d="M50 5 88 19v28c0 23-15 40-38 48C27 87 12 70 12 47V19L50 5Z" fill="none" stroke="#F02D4F" stroke-width="7" stroke-linejoin="round"/><path d="M31 29 69 70M69 29 31 70" fill="none" stroke="#FF365C" stroke-width="9" stroke-linecap="square"/><circle cx="25" cy="23" r="4" fill="#F5F5F5"/><circle cx="75" cy="23" r="4" fill="#F5F5F5"/><circle cx="50" cy="82" r="4" fill="#F5F5F5"/></g><text x="530" y="510" fill="#8F8F96" font-family="monospace" font-size="11">CLEAR SPACE</text><g transform="translate(700 390) scale(.32)"><path d="M50 5 88 19v28c0 23-15 40-38 48C27 87 12 70 12 47V19L50 5Z" fill="none" stroke="#F02D4F" stroke-width="7" stroke-linejoin="round"/><path d="M31 29 69 70M69 29 31 70" fill="none" stroke="#FF365C" stroke-width="9" stroke-linecap="square"/><circle cx="25" cy="23" r="4" fill="#F5F5F5"/><circle cx="75" cy="23" r="4" fill="#F5F5F5"/><circle cx="50" cy="82" r="4" fill="#F5F5F5"/></g><text x="686" y="445" fill="#8F8F96" font-family="monospace" font-size="10">32 px</text></svg>
